<svg width="218" height="218" viewBox="0 0 218 218" fill="none" xmlns="http://www.w3.org/2000/svg">
<g id="icon traveller">
<g id="Rectangle 16" filter="url(#filter0_d_164_41)">
<rect x="51" y="43.6356" width="116.729" height="116.729" rx="33.3511" fill="#F7F8F9"/>
</g>
<g id="icon-2">
<g id="Union">
<mask id="path-2-inside-1_164_41" fill="white">
<path fill-rule="evenodd" clip-rule="evenodd" d="M99.9495 71.984C98.5857 71.984 97.3594 72.8143 96.8529 74.0805L94.3564 80.3218H82.6835C75.3158 80.3218 69.3431 86.2945 69.3431 93.6622V117.008C69.3431 124.376 75.3158 130.348 82.6835 130.348H136.045C143.413 130.348 149.386 124.376 149.386 117.008V93.6622C149.386 86.2945 143.413 80.3218 136.045 80.3218H124.372L121.876 74.0805C121.369 72.8143 120.143 71.984 118.779 71.984H99.9495Z"/>
</mask>
<path d="M96.8529 74.0805L92.208 72.2225L92.208 72.2225L96.8529 74.0805ZM94.3564 80.3218V85.3244H97.7433L99.0012 82.1797L94.3564 80.3218ZM124.372 80.3218L119.727 82.1797L120.985 85.3244H124.372V80.3218ZM121.876 74.0805L126.521 72.2225V72.2225L121.876 74.0805ZM101.498 75.9384C101.244 76.5715 100.631 76.9867 99.9495 76.9867V66.9813C96.5401 66.9813 93.4742 69.057 92.208 72.2225L101.498 75.9384ZM99.0012 82.1797L101.498 75.9384L92.208 72.2225L89.7115 78.4638L99.0012 82.1797ZM82.6835 85.3244H94.3564V75.3191H82.6835V85.3244ZM74.3457 93.6622C74.3457 89.0574 78.0787 85.3244 82.6835 85.3244V75.3191C72.5529 75.3191 64.3404 83.5316 64.3404 93.6622H74.3457ZM74.3457 117.008V93.6622H64.3404V117.008H74.3457ZM82.6835 125.346C78.0787 125.346 74.3457 121.613 74.3457 117.008H64.3404C64.3404 127.139 72.5529 135.351 82.6835 135.351V125.346ZM136.045 125.346H82.6835V135.351H136.045V125.346ZM144.383 117.008C144.383 121.613 140.65 125.346 136.045 125.346V135.351C146.176 135.351 154.388 127.139 154.388 117.008H144.383ZM144.383 93.6622V117.008H154.388V93.6622H144.383ZM136.045 85.3244C140.65 85.3244 144.383 89.0574 144.383 93.6622H154.388C154.388 83.5316 146.176 75.3191 136.045 75.3191V85.3244ZM124.372 85.3244H136.045V75.3191H124.372V85.3244ZM117.231 75.9384L119.727 82.1797L129.017 78.4638L126.521 72.2225L117.231 75.9384ZM118.779 76.9867C118.097 76.9867 117.484 76.5715 117.231 75.9384L126.521 72.2225C125.254 69.057 122.189 66.9813 118.779 66.9813V76.9867ZM99.9495 76.9867H118.779V66.9813H99.9495V76.9867Z" fill="#7267EB" mask="url(#path-2-inside-1_164_41)"/>
</g>
<circle id="Ellipse 2" cx="109.364" cy="105.335" r="10.8391" stroke="#2B7DFF" stroke-width="5.00266"/>
<path id="Vector 3" d="M136.045 91.9947L126.04 91.9947" stroke="#7267EB" stroke-width="5.00266" stroke-linecap="round"/>
</g>
</g>
<defs>
<filter id="filter0_d_164_41" x="0.973404" y="0.279237" width="216.782" height="216.782" filterUnits="userSpaceOnUse" color-interpolation-filters="sRGB">
<feFlood flood-opacity="0" result="BackgroundImageFix"/>
<feColorMatrix in="SourceAlpha" type="matrix" values="0 0 0 0 0 0 0 0 0 0 0 0 0 0 0 0 0 0 127 0" result="hardAlpha"/>
<feOffset dy="6.67021"/>
<feGaussianBlur stdDeviation="25.0133"/>
<feComposite in2="hardAlpha" operator="out"/>
<feColorMatrix type="matrix" values="0 0 0 0 0 0 0 0 0 0 0 0 0 0 0 0 0 0 0.1 0"/>
<feBlend mode="normal" in2="BackgroundImageFix" result="effect1_dropShadow_164_41"/>
<feBlend mode="normal" in="SourceGraphic" in2="effect1_dropShadow_164_41" result="shape"/>
</filter>
</defs>
</svg>
